<?xml version="1.0" standalone="no"?>
<!DOCTYPE svg PUBLIC "-//W3C//DTD SVG 20010904//EN"
 "http://www.w3.org/TR/2001/REC-SVG-20010904/DTD/svg10.dtd">
<svg version="1.0" xmlns="http://www.w3.org/2000/svg"
 width="1000.000000pt" height="1000.000000pt" viewBox="0 0 1000.000000 1000.000000"
 preserveAspectRatio="xMidYMid meet">
<metadata>
Created by potrace 1.16, written by Peter Selinger 2001-2019
</metadata>
<g transform="translate(0.000000,1000.000000) scale(0.100000,-0.100000)"
fill="#000000" stroke="none">
<path d="M2870 9989 c-870 -35 -1225 -100 -1645 -304 -251 -122 -464 -292
-665 -530 -289 -344 -457 -812 -515 -1430 -36 -397 -40 -645 -40 -2655 0
-1907 3 -2173 26 -2595 11 -205 27 -285 25 -128 -1 82 0 87 21 92 12 4 33 16
48 29 22 19 24 26 14 43 -8 16 -8 20 0 14 7 -3 32 14 59 40 26 26 59 49 74 52
15 3 29 12 32 20 4 9 2 11 -6 7 -7 -4 -8 -3 -4 4 4 7 19 12 33 12 21 0 24 2
13 15 -7 8 -9 16 -4 16 5 1 19 3 32 4 13 1 29 8 35 15 10 10 7 11 -12 5 -15
-4 -21 -3 -17 3 7 12 -18 35 -27 25 -10 -10 -8 3 5 32 6 14 14 25 18 25 4 0
19 12 34 26 14 15 26 22 26 15 0 -6 7 -11 15 -11 8 0 14 6 13 12 -2 7 7 14 20
16 12 2 22 8 22 13 0 6 -5 7 -12 3 -7 -4 -8 -3 -4 4 4 6 13 9 21 5 10 -3 15 1
15 13 0 14 3 15 8 6 13 -20 56 1 87 42 15 19 30 35 33 34 14 -4 72 21 72 31 0
6 5 11 11 11 8 0 8 -4 0 -14 -9 -11 -7 -15 8 -19 14 -3 18 -1 14 9 -3 8 12 21
41 36 25 12 46 29 46 37 0 23 54 56 89 55 17 -1 28 2 26 7 -7 10 11 21 55 35
22 8 28 12 15 13 -15 1 -10 6 18 21 20 11 44 20 53 20 9 0 13 5 9 13 -4 6 -1
5 7 -3 12 -14 17 -14 48 1 l35 17 -27 11 c-16 6 -28 12 -28 14 0 6 45 2 50 -5
3 -3 38 7 78 24 l73 30 -8 232 c-4 127 -8 791 -8 1476 0 1269 6 1518 41 1785
54 414 173 734 381 1028 75 106 304 335 410 410 249 177 518 289 839 350 318
61 487 68 1794 74 1398 6 1796 -5 2129 -58 369 -59 702 -193 954 -386 89 -68
259 -235 334 -328 221 -274 373 -656 427 -1075 36 -276 41 -496 41 -1830 0
-1334 -5 -1555 -41 -1829 -44 -338 -161 -682 -309 -913 -181 -280 -440 -518
-720 -662 -235 -121 -560 -215 -834 -242 -66 -6 -71 -8 -51 -19 15 -8 19 -15
11 -19 -6 -4 -9 -12 -6 -17 4 -5 0 -9 -7 -9 -9 0 -9 -3 2 -10 11 -7 12 -10 2
-10 -8 0 -12 -6 -9 -12 2 -7 9 -13 14 -13 16 0 23 -9 28 -34 2 -12 -1 -21 -8
-21 -7 0 -6 -4 3 -10 13 -9 13 -11 0 -21 -13 -9 -12 -10 3 -5 10 3 21 6 24 6
3 0 0 7 -7 15 -9 10 -9 15 -1 15 11 0 14 -11 12 -46 -3 -29 17 -76 29 -69 6 3
7 -1 4 -9 -3 -9 -1 -16 6 -16 6 0 9 -4 6 -8 -3 -5 8 -20 24 -35 18 -17 27 -35
25 -47 -2 -11 1 -19 8 -17 7 1 11 -12 11 -35 -1 -28 3 -38 15 -38 10 0 12 -3
5 -8 -6 -4 -14 -23 -18 -42 -3 -19 -3 -29 0 -22 3 6 10 10 15 6 5 -3 5 -13 -2
-25 -6 -11 -8 -28 -4 -37 4 -9 11 -46 15 -82 5 -35 15 -69 22 -75 27 -22 48
-76 38 -95 -7 -13 -7 -21 0 -25 5 -3 10 -15 10 -25 0 -17 4 -18 26 -9 23 8 25
8 15 -5 -10 -11 -9 -19 1 -35 7 -12 16 -21 20 -21 5 0 8 -8 8 -17 0 -15 -2
-16 -10 -3 -5 8 -12 11 -15 8 -10 -10 4 -28 21 -28 8 0 14 -9 14 -22 -1 -22
-1 -23 -15 -4 -8 11 -15 15 -15 9 0 -6 6 -16 14 -22 11 -9 12 -20 5 -43 l-8
-31 22 21 23 22 2 -38 c2 -20 4 -57 6 -81 3 -42 3 -43 -13 -24 -9 11 -23 23
-33 26 -14 5 -15 1 -6 -31 14 -55 19 -62 14 -20 -3 21 -1 38 5 38 5 0 9 -9 9
-20 0 -10 8 -23 17 -28 24 -14 25 -52 1 -52 -10 0 -18 -5 -18 -10 0 -17 508 7
750 35 545 63 982 226 1302 484 99 79 250 230 330 329 274 340 436 801 493
1397 35 381 38 552 42 2535 6 2499 -5 2859 -98 3325 -102 511 -280 864 -596
1180 -220 219 -408 341 -707 459 -368 146 -697 195 -1511 226 -304 12 -3921
11 -4215 -1z"/>
<path d="M3765 8003 c-200 -7 -447 -24 -544 -38 -293 -43 -531 -139 -719 -290
-232 -187 -378 -445 -447 -790 -58 -291 -69 -658 -61 -2056 4 -613 10 -1157
14 -1209 5 -52 9 -85 10 -72 1 12 9 22 17 22 9 0 18 7 22 16 5 13 7 13 14 2 5
-7 9 -8 9 -2 0 5 16 10 35 11 24 1 33 -3 28 -10 -4 -7 1 -6 10 2 15 12 17 11
17 -9 l0 -23 20 23 c15 18 30 23 65 23 25 0 48 -3 52 -7 3 -3 -2 -6 -12 -6
-22 0 -15 -9 12 -14 31 -6 125 22 150 46 13 12 23 16 23 10 0 -7 5 -12 11 -12
5 0 7 6 3 13 -6 10 -4 10 7 0 15 -15 33 -17 25 -4 -3 5 2 8 11 7 10 0 18 6 18
14 0 11 14 16 48 18 38 3 47 0 41 -10 -5 -8 3 -6 19 5 18 11 36 15 53 11 17
-4 29 -2 35 7 7 11 9 9 9 -8 0 -15 6 -21 19 -20 11 0 17 5 15 9 -3 5 -9 6 -13
4 -4 -3 -8 4 -8 15 -1 10 3 19 8 19 6 0 7 -4 4 -10 -3 -5 -2 -10 3 -10 6 0 12
7 16 15 3 8 11 15 17 15 8 0 8 -4 -1 -15 -10 -12 -9 -16 4 -21 11 -4 22 0 30
11 17 24 119 30 137 9 6 -8 18 -14 25 -14 8 0 14 -4 14 -10 0 -5 -8 -7 -17 -4
-17 5 -17 5 -1 -6 13 -8 25 -7 48 5 28 14 30 14 31 -2 0 -11 3 -13 6 -5 2 6 9
12 14 12 6 0 8 -4 4 -9 -3 -5 -1 -12 5 -16 5 -3 10 0 10 7 0 9 17 13 58 13 65
-1 115 -13 106 -26 -3 -5 -13 -5 -23 1 -24 12 -91 19 -91 9 0 -4 12 -7 28 -7
15 0 41 -5 57 -12 50 -22 57 -21 51 5 -3 13 -2 26 3 29 5 3 9 0 8 -7 -1 -36 4
-57 13 -52 6 4 8 10 5 15 -8 13 6 40 20 40 8 0 17 -4 20 -10 3 -6 -2 -8 -12
-5 -10 3 2 -4 27 -16 27 -12 57 -19 75 -16 17 2 39 1 50 -3 25 -9 47 -2 38 14
-3 6 3 2 14 -9 11 -11 18 -24 15 -30 -3 -5 2 -4 11 4 15 12 17 11 17 -3 0 -15
2 -15 24 -1 16 11 26 13 31 6 3 -6 -1 -11 -10 -11 -9 0 -13 -5 -10 -10 4 -6
11 -8 16 -4 5 3 17 0 25 -7 12 -10 17 -10 27 1 10 10 9 12 -5 7 -12 -4 -18 -1
-18 8 0 9 6 12 18 8 27 -10 52 -35 45 -46 -3 -6 -1 -7 5 -3 7 4 -31 49 -96
114 -283 282 -459 616 -537 1022 -23 117 -31 401 -15 542 85 776 659 1433
1415 1621 181 45 240 52 465 52 225 0 284 -7 465 -52 758 -188 1326 -840 1416
-1623 18 -161 6 -435 -25 -585 -141 -671 -618 -1210 -1261 -1424 -178 -59
-413 -101 -568 -101 -40 0 -54 -4 -54 -14 0 -8 11 -16 24 -19 19 -3 21 -2 12
9 -9 11 -8 14 6 14 10 0 24 -8 32 -17 8 -10 11 -12 7 -4 -5 11 -2 13 14 9 12
-4 20 -2 16 3 -6 10 17 12 40 3 9 -3 13 -11 10 -16 -4 -6 -10 -5 -16 3 -7 11
-8 11 -6 -1 2 -8 -8 -26 -21 -39 -18 -18 -20 -25 -10 -32 17 -10 34 0 20 14
-7 7 -5 14 7 23 22 17 35 18 26 2 -4 -7 -4 -10 1 -6 4 4 15 2 23 -5 13 -10 15
-9 8 3 -4 8 0 6 8 -5 9 -11 23 -28 31 -38 8 -9 15 -25 16 -35 0 -9 3 -12 5 -6
5 12 103 -19 114 -36 3 -4 24 -17 48 -29 38 -19 41 -24 31 -43 -8 -14 -8 -18
0 -14 9 6 15 -5 13 -25 -1 -3 6 -6 14 -6 12 0 12 4 -1 24 -19 28 -5 31 20 3
17 -19 17 -21 0 -40 -14 -16 -16 -23 -7 -32 9 -9 12 -8 12 4 0 8 8 22 17 29
15 12 16 12 10 -4 -4 -10 -3 -16 2 -12 18 10 39 -7 45 -36 6 -34 21 -38 29 -8
4 16 3 18 -8 9 -11 -9 -14 -7 -12 8 1 14 7 18 22 15 16 -4 17 -3 5 6 -8 6 -23
11 -32 11 -10 0 -18 7 -18 15 0 20 26 19 34 -1 3 -8 9 -13 14 -10 4 2 15 -9
25 -26 15 -25 15 -29 2 -24 -8 3 -15 1 -15 -4 0 -5 9 -11 19 -15 11 -3 22 -13
25 -21 3 -8 11 -12 16 -9 6 4 9 1 8 -6 -2 -6 3 -14 11 -17 9 -3 11 0 6 9 -5 8
-4 11 1 6 5 -5 10 -13 10 -18 3 -22 5 -23 12 -11 11 17 42 4 42 -17 0 -14 -2
-14 -11 -1 -9 13 -10 13 -6 0 2 -8 13 -15 24 -15 12 0 25 -3 29 -8 4 -4 2 -7
-4 -7 -7 0 -12 -5 -12 -10 0 -7 6 -7 19 0 25 13 42 13 19 -1 -12 -6 -18 -22
-18 -42 1 -28 2 -30 14 -15 7 10 17 14 22 10 5 -4 2 0 -8 9 -18 17 -14 29 8
29 14 0 37 -58 28 -71 -3 -5 0 -9 5 -9 6 0 11 -7 11 -15 0 -8 5 -15 10 -15 6
0 10 5 10 11 0 5 4 8 9 5 5 -4 12 0 14 6 3 7 6 0 7 -17 1 -16 4 -24 7 -17 8
20 26 14 57 -18 17 -19 26 -36 22 -46 -5 -12 -2 -15 11 -10 14 6 15 4 6 -5 -9
-9 -9 -14 0 -24 10 -10 14 -9 24 9 11 18 12 19 13 3 0 -10 3 -16 8 -14 4 3 21
-13 37 -34 17 -21 38 -41 48 -45 10 -3 16 -8 13 -11 -3 -4 -1 -12 5 -19 7 -8
7 -14 -1 -19 -5 -3 -10 -11 -10 -16 0 -6 5 -7 10 -4 6 3 10 -1 10 -10 0 -9 4
-14 9 -11 10 7 31 -39 35 -77 1 -15 11 -36 21 -46 9 -11 15 -27 11 -36 -5 -13
3 -15 57 -10 34 2 125 7 202 10 497 21 833 143 1086 396 202 202 323 465 373
809 37 256 41 411 41 1780 0 1368 -4 1536 -41 1785 -84 565 -374 938 -861
1104 -193 66 -398 95 -797 111 -223 9 -2303 11 -2541 3z m3287 -604 c248 -52
406 -302 343 -542 -21 -81 -50 -132 -108 -195 -61 -63 -115 -97 -198 -123
-150 -47 -308 -8 -427 104 -121 115 -168 273 -127 430 20 78 45 124 99 184
109 121 265 174 418 142z"/>
<path d="M4786 6204 c-438 -79 -809 -402 -945 -822 -46 -142 -56 -213 -56
-392 1 -144 4 -178 27 -270 106 -421 398 -740 800 -875 381 -127 801 -61 1117
175 312 233 491 591 491 980 0 363 -145 681 -420 923 -167 146 -371 243 -597
282 -106 19 -311 18 -417 -1z"/>
</g>
</svg>
