<?xml version="1.0" standalone="no"?>
<!DOCTYPE svg PUBLIC "-//W3C//DTD SVG 20010904//EN"
 "http://www.w3.org/TR/2001/REC-SVG-20010904/DTD/svg10.dtd">
<svg version="1.0" xmlns="http://www.w3.org/2000/svg"
 width="225.000000pt" height="225.000000pt" viewBox="0 0 225.000000 225.000000"
 preserveAspectRatio="xMidYMid meet">

<g transform="translate(0.000000,225.000000) scale(0.100000,-0.100000)"
fill="#000000" stroke="none">
<path d="M1020 1944 c-191 -82 -236 -418 -67 -495 73 -33 137 -18 207 47 123
115 142 325 38 421 -47 44 -115 54 -178 27z"/>
<path d="M1497 1755 c-63 -22 -113 -73 -154 -155 -37 -76 -39 -192 -5 -263 60
-121 206 -128 307 -15 55 60 78 120 83 213 3 72 1 85 -25 135 -22 43 -38 60
-73 78 -51 25 -79 27 -133 7z"/>
<path d="M523 1664 c-92 -45 -154 -148 -161 -267 -6 -93 12 -147 63 -197 30
-29 43 -34 95 -38 50 -4 66 -1 104 22 55 32 92 75 125 146 53 115 25 272 -58
327 -41 28 -120 31 -168 7z"/>
<path d="M1047 1276 c-21 -8 -77 -36 -125 -64 -48 -27 -166 -88 -263 -135
-188 -92 -217 -115 -263 -205 -64 -127 -46 -259 43 -318 70 -46 123 -57 292
-58 179 -2 168 3 323 -124 93 -76 128 -92 193 -92 134 1 253 141 253 297 0 48
-9 75 -54 172 -30 64 -75 183 -101 264 -25 82 -56 164 -67 183 -41 70 -153
109 -231 80z"/>
<path d="M1705 1231 c-52 -23 -111 -89 -142 -159 -50 -107 -30 -247 42 -311
86 -75 209 -41 292 83 41 60 57 114 56 191 -2 163 -119 255 -248 196z"/>
</g>
</svg>
